<?xml version="1.0" encoding="UTF-8"?>
<svg xmlns="http://www.w3.org/2000/svg" viewBox="0 0 320 320" role="img" aria-label="Reactive dog mascot">
  <rect id="frame" width="320" height="320" rx="28" fill="#0f1720"/>
  <g id="badge">
    <rect id="label-banner" x="92" y="18" width="136" height="36" rx="18" fill="#3fa9f5" opacity="0.92"/>
    <text id="mode-label" x="160" y="43" text-anchor="middle" font-size="18" font-family="'Nunito','Segoe UI',sans-serif" fill="#04111c">Idle</text>
  </g>
  <g id="dog" transform="translate(36 52)">
    <g id="tail-group" transform="rotate(-12 22 188)">
      <path id="tail" d="M22 188 Q-60 140 6 108" fill="none" stroke="#f7b37f" stroke-width="22" stroke-linecap="round"/>
      <circle id="tail-tip" cx="8" cy="106" r="18" fill="#fff4e6"/>
    </g>
    <path id="body" d="M48 64 Q8 120 14 188 C20 248 70 280 124 280 C178 280 228 248 234 188 C240 120 200 64 160 64 L124 64 Z" fill="#f7b37f" stroke="#3d2b1f" stroke-width="6" stroke-linejoin="round"/>
    <path id="belly" d="M80 186 C80 150 110 134 124 134 C138 134 168 150 168 186 C168 224 138 244 124 244 C110 244 80 224 80 186 Z" fill="#fff4e6" opacity="0.95"/>
    <g id="ear-left" transform="rotate(0 76 46)">
      <path id="ear-left-shape" d="M36 108 Q74 0 116 46 L102 120 Z" fill="#ffd8b3" stroke="#3d2b1f" stroke-width="5" stroke-linejoin="round"/>
    </g>
    <g id="ear-right" transform="rotate(0 172 46)">
      <path id="ear-right-shape" d="M132 120 L118 46 Q160 0 204 108 Z" fill="#ffd8b3" stroke="#3d2b1f" stroke-width="5" stroke-linejoin="round"/>
    </g>
    <path id="mask" d="M28 142 C20 88 60 56 96 56 L152 56 C188 56 228 88 220 142 C214 182 180 214 124 214 C68 214 34 182 28 142 Z" fill="#ffd8b3"/>
    <ellipse id="eye-left" cx="88" cy="110" rx="20" ry="14" fill="#161616"/>
    <ellipse id="eye-right" cx="160" cy="110" rx="20" ry="14" fill="#161616"/>
    <circle id="eye-highlight-left" cx="76" cy="102" r="7" fill="#ffffff" opacity="0.6"/>
    <circle id="eye-highlight-right" cx="148" cy="102" r="7" fill="#ffffff" opacity="0.6"/>
    <circle id="cheek-left" cx="70" cy="180" r="20" fill="#ffceb0" opacity="0.50"/>
    <circle id="cheek-right" cx="178" cy="180" r="20" fill="#ffceb0" opacity="0.50"/>
    <rect id="nose" x="108" y="140" width="52" height="26" rx="14" fill="#3d2b1f"/>
    <path id="nose-shine" d="M114 154 Q134 164 150 154" fill="none" stroke="#000000" stroke-width="3" opacity="0.35" stroke-linecap="round"/>
    <path id="mouth" d="M74 200 Q124 188 174 200" fill="none" stroke="#3d2b1f" stroke-width="6" stroke-linecap="round"/>
    <path id="paw-left" d="M64 238 C62 256 80 266 94 260" fill="none" stroke="#3d2b1f" stroke-width="6" stroke-linecap="round" opacity="0.35"/>
    <path id="paw-right" d="M182 260 C196 266 214 256 212 238" fill="none" stroke="#3d2b1f" stroke-width="6" stroke-linecap="round" opacity="0.35"/>
  </g>
</svg>
