<?xml version="1.0" encoding="UTF-8"?>
<svg id="Layer_1" xmlns="http://www.w3.org/2000/svg" version="1.1" viewBox="0 0 2940.704 2940.703">
  <!-- Generator: Adobe Illustrator 29.8.1, SVG Export Plug-In . SVG Version: 2.1.1 Build 2)  -->
  <path d="M108.335,108.335h2724.033v2724.033H108.335V108.335Z" fill="#f7f8fc"/>
  <path d="M1782.311,648.966c43.041-19.073,105.768-46.288,139.66,2.687,30.485,56.235,38.599,122.607,43.894,185.654,5.958,97.308-36.843,192.783-104.651,260.992,14.575,61.795,23.702,125.161,21.92,188.793,19.258,1.168,45.089-19.447,59.854.771,5.851,21.679-9.127,42.748-20.564,60.171,4.868,5.562,10.24,12.319,6.89,20.193-14.524,52.297-44.931,99.728-84.194,136.893,57.434,106.699,70.602,232.899,46.021,350.77,12.555,64.244,99.224,55.786,125.135,111.302,26.521,41.075,7.395,94.649-26.469,125.084,11.677,5.266,22.478,12.581,31.099,22.185,12.423,13.407,18.647,31.551,17.928,49.746-3.671,29.581-30.458,54.214-60.439,54.428-45.755.399-91.511-.056-137.238.345-10.376,32.643-45.355,50.144-78.211,45.649-47.269-3.273-112.632,15.321-140.111-36.391-2.474-5.959-4.682-11.971-7.048-17.93-73.927,4.521-148.121,5.239-222.074,1.833-2.102,6.335-4.071,12.743-6.332,19.048-31.099,52.193-99.066,28.519-148.518,33.759-31.283,3.377-64.51-14.499-72.916-45.994-46.58-.721-93.187.371-139.767-.214-29.953.081-57.061-24.713-60.119-54.401-1.172-23.569,11.038-45.939,29.155-60.412,5.666-4.575,12.104-8.061,18.409-11.677-38.599-35.303-53.869-99.839-14.605-140.726,30.592-40.833,101.381-37.482,114.947-92.735-20.668-109.598-16.972-226.727,30.86-329.118-49.401-38.863-90.233-90.843-109.229-151.285-3.538-9.311-1.595-19.445,3.884-27.532-12.397-17.317-27.452-37.269-25.033-59.616,9.205-23.648,38.466-9.789,55.945-5-3.936-60.493.055-121.438,7.448-181.345-73.207-63.899-117.714-159.64-117.552-257.027.93-60.894,9.336-122.317,29.553-179.908,12.345-34.211,52.274-54.002,86.749-40.781,104.041,31.576,212.735,91.243,256.734,196.243,84.09-21.788,174.029-23.49,258.226.158,29.182-86.191,111.088-139.953,190.762-174.614Z" fill="#310b25"/>
  <path d="M1007.373,682.884c6.86-24.155,31.868-46.847,58.176-36.765,98.056,27.826,199.649,82.014,245.296,177.78,17.265,25.405-29.447,25.218-38.757,43.867,14.286-3.751,26.734-12.636,41.1-16.07,28.704-3.936,43.467,23.276,70.867,28.891-.239,2.395-.533,4.788-.798,7.183-44.745,63.018-12.662,146.575,36.045,197.28,19.977,16.465,31.31,58.363-1.702,66.637-71.053,14.79-135.004,68.287-152.376,140.112-6.783,29.13-42.669,46.953-68.394,29.103-27.16-16.016-31.948-50.624-54.03-70.895-18.967-12.662-38.97,3.513-49.85,18.86-5.64-60.997,2.792-122.181,9.282-182.675-6.012-1.782-12.636-2.847-17.45-7.18-65.575-60.629-104.651-149.506-102.259-239.075,1.465-53.068,9.339-106.22,24.849-157.055Z" fill="#fdb563"/>
  <path d="M1851.662,646.491c34.209-13.408,61.795,20.403,67.196,50.97-22.692-17.983-55.57-13.007-73.633,9.95,17.185-1.701,40.539-9.178,50.889,9.843,20.403,35.38,12.396,78.34,17.718,117.233-3.619,76.215-17.292,160.915-71.986,217.628,6.092,5.562,19.418,1.705,28.119.665-9.365,13.94-21.84,25.381-33.599,37.113,18.408,69.324,28.462,141.414,23.303,213.212,11.145-34.847-35.78-82.333-64.804-48.228-16.839,31.415-37.455,79.114-82.014,68.58-22.105-5.029-34.66-25.859-41.684-45.781-25.166-67.357-89.436-116.597-159.932-127.744-28.568-11.784-16.413-49.239,1.97-65.094,46.207-49.027,79.779-128.222,36.338-189.46,16.972-16.226,44.346-31.574,67.648-43.784,15.961,3.99,30.061,13.192,45.675,18.302-14.976-14.498-34.821-22.692-52.91-32.642,34.023-104.971,143.25-160.063,241.705-190.762Z" fill="#fdb563"/>
  <path d="M1028.199,712.304c-.666-12.716,9.178-27.958,23.331-25.43,32.533,7.102,51.635,37.134,78.049,54.134-1.94.107-5.798.32-7.712.4,33.863,47.031,71.37,97.255,77.277,156.603-19.473,24.393-44.267,49.187-49.933,80.709-16.013,23.544-26.602,51.557-40.381,76.854-12.342,6.011-30.566-5.908-33.836-18.117,34.37-46.34,88.929-85.126,93.717-147.241-2.793-56.183-34.183-107.337-74.379-145.141-17.211-18.195-40.142-33.383-66.133-32.772Z" fill="#c87741"/>
  <path d="M1845.226,707.41c18.062-22.957,50.94-27.933,73.633-9.95,38.599,116.968,38.412,259.875-48.893,355.319-8.701,1.04-22.027,4.897-28.119-.665,54.694-56.713,68.367-141.414,71.986-217.628-5.321-38.893,2.686-81.853-17.718-117.233-10.35-19.021-33.704-11.544-50.889-9.843Z" fill="#c87741"/>
  <path d="M1121.867,741.408c1.915-.081,5.772-.294,7.712-.4,40.781,27.268,64.51,73.74,82.04,118.272,4.549,16.094,14.976,38.201-.185,51.606-23.624,19.793-44.213,42.911-62.224,67.835,5.666-31.522,30.46-56.316,49.933-80.709-5.907-59.348-43.415-109.572-77.277-156.603Z" fill="#310b25"/>
  <path d="M1711.895,860.716c15.164-45.755,40.062-98.294,85.685-118.965-32.028,49.668-70.707,101.274-83.662,161.715-13.674-9.365-3.352-29.371-2.022-42.75Z" fill="#310b25"/>
  <path d="M1411.134,829.407c41.898-5.32,84.994-4.497,126.572,3.112-35.248,12.313-3.164,46.792,11.838,62.857,43.441,61.239,9.869,140.434-36.338,189.46-18.383,15.854-30.538,53.31-1.97,65.094,70.495,11.147,134.766,60.387,159.932,127.744,7.023,19.922,19.579,40.752,41.684,45.781,44.559,10.534,65.175-37.165,82.014-68.58,29.023-34.105,75.949,13.381,64.804,48.228-.133,3.351-.294,6.706-.399,10.082,9.604-.639,19.101-2.341,28.731-3.086,1.117.345,3.378,1.01,4.495,1.356-5.879,18.411-15.855,35.115-23.038,52.993l-1.091,1.753c-72.41,114.417-207.146,178.339-339.466,187.014,38.971-35.7,36.311-94.224,68.154-134.42,11.412-13.007,18.754-30.779,10.986-47.67,16.175-36.79,58.044-79.06,25.484-119.15,1.117,12.475,2.526,25.165-.825,37.456-.85-1.197-2.527-3.592-3.377-4.788-43.044,28.781-120.906,49.824-152.909-3.512,1.33-1.782,2.686-3.538,4.045-5.32,31.47-11.041,80.15-45.729,51.421-82.466-36.125-31.525-106.462-32.934-136.708,7.474-17.743,42.272,35.115,69.006,68.128,79.328-39.398,48.203-113.271,38.44-158.946,3.457-1.914-9.843-1.782-19.897-2.421-29.847-30.192,41.604,12.478,81.268,30.699,116.994-12.716,26.47,12.316,46.421,22.957,67.835,15.748,35.887,20.884,76.615,45.436,108.351-139.127-21.708-270.832-107.738-332.284-236.518,1.995-.133,6.04-.398,8.061-.533,6.225.268,12.449.878,18.702.958-.135-14.046-2.847-27.932-2.554-41.978,10.88-15.348,30.883-31.522,49.85-18.86,22.082,20.271,26.87,54.879,54.03,70.895,25.724,17.85,61.61.026,68.394-29.103,17.372-71.825,81.323-125.322,152.376-140.112,33.011-8.274,21.679-50.172,1.702-66.637-48.707-50.705-80.79-134.262-36.045-197.28,13.327-16.014,51.102-35.538,27.877-58.363Z" fill="#f7f8fc"/>
  <path d="M1313.188,851.697c31.416-11.571,64.562-19.525,97.946-22.289,23.225,22.825-14.55,42.35-27.877,58.363.265-2.395.559-4.788.798-7.183-27.4-5.614-42.163-32.827-70.867-28.891Z" fill="#dccdba"/>
  <path d="M1537.706,832.52c26.87,3.058,53.816,10.08,79.486,19.073-23.303,12.21-50.677,27.558-67.648,43.784-15.002-16.065-47.086-50.544-11.838-62.857Z" fill="#e5d6c7"/>
  <path d="M1191.83,1108.753c-9.417-44.771,39.024-85.365,81.374-77.465,12.236,2.527,7.155,18.754-4.097,17.133-35.725,2.525-61.449,30.857-77.277,60.332Z" fill="#310b25"/>
  <path d="M1654.275,1031.582c41.527-8.355,92.92,29.288,84.274,74.644-16.651-27.509-42.615-56.158-78.449-57.353-12.423,2.047-20.375-13.753-5.825-17.291Z" fill="#2e0b22"/>
  <path d="M904.929,1083.268c41.895-20.19,70.147,34.557,49.611,67.063,49.053-2.689,59.961,73.926,8.246,78.689-.478,18.46-4.681,40.222-24.82,46.686-30.06,14.124-62.486-19.5-50.463-49.533-24.526.958-55.728-11.812-55.596-40.381-4.655-29.182,27.238-47.619,52.937-45.782-2.874-20.271-2.661-47.431,20.086-56.742Z" fill="#f2edeb"/>
  <path d="M1255.833,1091.223c41.181-14.631,86.404,30.67,68.978,71.503-13.938,42.324-79.564,47.645-100.526,8.513-18.411-28.942-.907-70.84,31.548-80.016Z" fill="#2e0b22"/>
  <path d="M1641.533,1091.223c29.873-10.001,64.75,10.56,70.841,41.311,11.438,45.836-47.645,84.541-85.178,56.184-37.775-23.116-28.28-86.085,14.337-97.495Z" fill="#2e0b22"/>
  <path d="M1988.13,1158.367c.904-27.509,31.338-51.557,57.274-36.819,24.578,13.753,22.689,44.293,13.034,66.346,22.427-1.943,48.096,4.84,58.098,27.187,15.057,22.905-4.494,56.768-31.681,55.599-7.822-1.491-13.488,5.079-9.791,12.395,9.391,28.519-22.825,59.989-50.996,48.416-21.84-6.863-29.369-31.628-27.027-52.377-10.322-6.412-19.472-14.605-20.217-28.013-31.338-.478-60.413-33.943-45.463-64.616,10.002-22.612,36.204-23.757,56.768-28.116Z" fill="#f2edeb"/>
  <path d="M1277.14,1146.635c13.195-8.885,26.763,10.267,13.94,19.284-12.662,8.887-26.227-10.373-13.94-19.284Z" fill="#f7f8fc"/>
  <path d="M1672.126,1167.064c-14.551,6.17-25.327-16.387-9.894-21.575,14.417-6.279,22.344,14.472,9.894,21.575Z" fill="#f7f8fc"/>
  <path d="M1395.173,1200.82c30.246-40.407,100.583-38.998,136.708-7.474,28.729,36.736-19.951,71.425-51.421,82.466-18.809,5.24-3.913,33.039.026,46.101,39.212,48.974,137.105,29.901,152.215-32.481,3.352-12.29,1.942-24.98.825-37.456,32.56,40.09-9.31,82.359-25.484,119.15-22.611,38.786-49.4,76.348-60.493,120.532-16.601,52.248-91.191,62.568-129.816,28.704-21.973-15.51-22.531-44.397-34.795-66.131-15.244-28.703-32.536-56.264-50.305-83.479-18.221-35.726-60.891-75.389-30.699-116.994.639,9.95.507,20.003,2.421,29.847,7.368,84.329,169.4,91.192,158.946-3.457-33.013-10.322-85.871-37.056-68.128-79.328Z" fill="#310b25"/>
  <path d="M1441.115,1194.199c8.646-5.827,20.43-4.869,28.436,1.621,6.224-8.778,25.54-7.448,24.181,5.453-2.738,12.319-19.471,8.329-25.324.533-6.65,13.143-32.72,9.578-27.293-7.606Z" fill="#f7f8fc"/>
  <path d="M1480.486,1321.914c-3.939-13.062-18.835-40.861-.026-46.101-1.359,1.782-2.715,3.538-4.045,5.32,32.003,53.336,109.865,32.293,152.909,3.512.85,1.195,2.527,3.59,3.377,4.788-15.109,62.382-113.003,81.455-152.215,32.481Z" fill="#dccdba"/>
  <path d="M1304.355,1283.606c45.675,34.982,119.547,44.745,158.946-3.457,10.454,94.649-151.578,87.786-158.946,3.457Z" fill="#dccdba"/>
  <path d="M1041.635,1300.713c11.545,3.696,23.248,6.809,35.168,9.175-2.021.135-6.066.4-8.061.533,61.452,128.78,193.157,214.81,332.284,236.518-24.552-31.735-29.688-72.464-45.436-108.351-10.641-21.414-35.673-41.365-22.957-67.835,17.769,27.215,35.06,54.776,50.305,83.479,12.264,21.734,12.823,50.622,34.795,66.131,38.625,33.864,113.216,23.544,129.816-28.704,11.093-44.184,37.882-81.747,60.493-120.532,7.768,16.891.426,34.663-10.986,47.67-31.844,40.196-29.184,98.72-68.154,134.42,132.319-8.675,267.056-72.597,339.466-187.014,11.066,4.549,23.224,3.086,34.931,3.645-41.527,129.047-172.567,206.033-298.316,235-184.405,41.659-405.439-10.428-517.38-171.873-11.704-19.767-24.394-40.41-27.399-63.525,11.147-.904,22.744.878,33.52-2.873-18.596-20.616-45.756-36.551-52.087-65.865Z" fill="#dccdba"/>
  <path d="M1888.001,1310.102c10.215-3.165,21.095-3.858,31.39-6.997-8.326,25.75-27.398,47.06-49.933,61.346,7.183-17.878,17.159-34.582,23.038-52.993-1.117-.346-3.378-1.011-4.495-1.356Z" fill="#dccdba"/>
  <path d="M1414.62,1387.966c-.533-31.763,38.625-31.018,53.175-53.045,16.309,22.373,53.31,21.814,58.127,52.671-19.048-.53-38.627,2.395-53.711,14.873-16.838-11.306-37.029-16.255-57.591-14.499Z" fill="#d36962"/>
  <path d="M1412.81,1387.992l1.811-.026c20.562-1.756,40.752,3.193,57.591,14.499,15.084-12.478,34.663-15.402,53.711-14.873,9.895,32.561,12.184,68.845,3.245,101.781-20.165,49.772-110.053,40.991-118.165-13.223-4.229-29.127-3.139-59.135,1.808-88.158Z" fill="#ff9495"/>
  <path d="M1162.406,1544.837c196.456,133.939,480.244,128.406,665.767-23.436,6.037,13.352,14.418,26.574,17.398,40.753-162.511,131.095-395.413,155.036-588.648,84.009-31.15-16.52-77.917-17.982-95.741,18.117-29.288,61.769-6.037,131.493,8.752,194.033,20.855,95.182,45.942,189.593,62.223,285.679-9.95,2.793-20.193,4.175-30.195,6.57-22.902-136.815-68.687-270.09-77.704-408.897-2.712-67.489,11.067-135.06,38.147-196.828Z" fill="#c87741"/>
  <path d="M1256.923,1646.163c193.235,71.027,426.137,47.086,588.648-84.009,36.045,80.496,42.401,172.728,28.648,259.291-23.063,110.023-50.011,219.278-69.51,330.022-20.698-3.91-43.122-12.13-64.085-3.697-37.774-6.544-79.486-20.006-99.782-55.359,2.073-56.662,2.925-113.562-1.81-170.12,10.03-42.935,22.718-85.523,44.77-123.989,15.084-26.311-3.563-56.397-26.362-70.708-38.545-25.246-86.96-23.703-131.198-25.06-58.099.851-119.602-5.4-173.924,19.577-27.748,12.372-52.487,46.582-34.688,76.48,22.744,38.415,35.645,81.137,47.855,123.729-3.91,55.65-1.331,111.592.826,167.243-11.467,41.688-60.28,53.045-97.736,57.888-11.89-3.219-24.207-3.806-36.417-3.458-16.281-96.086-41.368-190.497-62.223-285.679-14.79-62.54-38.041-132.264-8.752-194.033,17.824-36.1,64.59-34.637,95.741-18.117Z" fill="#fdb563"/>
  <path d="M1352.318,1722.11c54.321-24.978,115.825-18.727,173.924-19.577,44.238,1.356,92.653-.186,131.198,25.06,22.799,14.311,41.446,44.396,26.362,70.708-22.053,38.466-34.74,81.055-44.77,123.989-7.926,20.99-6.063,44.639-12.104,65.681-52.113,64.323-154.582,86.509-220.982,31.045-9.311-6.492-15.322-17.904-26.706-21.068-5.32-25.059-4.791-51.474-13.755-75.628-12.21-42.592-25.111-85.314-47.855-123.729-17.798-29.898,6.941-64.108,34.688-76.48Z" fill="#f7f8fc"/>
  <path d="M999.231,1998.558c11.997-64.084,92.283-60.678,124.897-107.816,2.447,10.534,4.335,21.228,6.73,31.816-25.937,46.951-14.34,100.367,1.089,148.597-47.245-16.491-102.23-29.313-132.716-72.597Z" fill="#fdb563"/>
  <path d="M1880.789,1891.007c30.86,48.948,117.662,43.334,123.967,110.026-30.911,40.381-82.014,56.423-129.977,65.307,10.427-47.03,31.363-104.199.345-147.347,1.305-9.445,3.99-18.621,5.666-27.986Z" fill="#fdb563"/>
  <path d="M1875.123,1918.993c31.019,43.147,10.082,100.316-.345,147.347,47.964-8.884,99.066-24.926,129.977-65.307,9.256,31.684-16.122,62.034-37.856,83.076-45.727.055-90.95,10.428-132.369,29.821,10.534-65.495,26.018-130.243,40.593-194.938Z" fill="#c87741"/>
  <path d="M1130.858,1922.558c14.231,63.525,29.582,126.892,41.524,190.921-42.03-17.663-86.269-30.324-132.238-29.767-26.257-18.33-49.824-51.767-40.914-85.154,30.486,43.283,85.472,56.105,132.716,72.597-15.429-48.229-27.026-101.646-1.089-148.597Z" fill="#c87741"/>
  <path d="M1405.946,2019.016c66.4,55.464,168.869,33.278,220.982-31.045-1.117,37.96-3.936,76.481-8.458,114.043-24.739,72.81-111.996,56.209-172.035,59.906-26.07,4.365-48.497-13.407-55.467-37.801-4.733-41.924-6.996-84.193-11.729-126.172,11.384,3.164,17.395,14.576,26.706,21.068Z" fill="#dccdba"/>
  <path d="M1268.575,2147.45c37.456-4.843,86.269-16.2,97.736-57.888-.319,41.394,11.81,83.718,3.539,124.471-21.23,9.284-43.176,19.234-67.224,17.691-7.448-15.616-2.18-32.775.639-48.788-19.419,13.459-21.282,40.833-11.28,60.678-16.465-2.767-42.295,7.157-48.868-14.124-14.337-25.592.081-55.812,23.066-70.389-29.158,1.834-47.379,31.709-43.389,59.163-11.945-4.097-23.596-8.94-35.221-13.888-.133-40.434,47.512-55.439,81.003-56.927Z" fill="#f7f8fc"/>
  <path d="M1640.843,2092.41c20.296,35.353,62.008,48.815,99.782,55.359,29.582,1.86,63.525,13.408,76.746,42.296,10.321,25.245-13.14,53.229-39.131,52.405,20.99-31.15,3.486-80.896-36.498-83.236,29.954,13.62,42.404,57.274,17.027,81.003-11.971,5.001-25.753,1.914-38.441,2.26,11.413-20.403,6.57-48.787-13.326-62.114,5.479,16.998,10.32,36.683.452,53.098-30.302-1.837-63.66-18.224-69.3-50.944-.718-30.005,2.66-60.067,2.688-90.126Z" fill="#f7f8fc"/>
  <path d="M589.322,2156.335c130.908-35.461,267.03-43.867,401.289-57.646,1.146,1.304,3.46,3.936,4.604,5.24-18.117,14.473-30.327,36.843-29.155,60.412-33.759,9.472-82.228,11.28-99.464,45.862,13.088,34.156,59.454,35.193,90.073,45.543,252.586,46.021,510.943,40.436,766.401,34.45,113.827-7.077,229.122-11.919,340.078-40.622,19.923-7.955,50.331-13.008,56.21-36.736-14.047-28.357-51.234-33.307-78.902-41.607-.426-1.756-1.224-5.266-1.623-7.021.72-18.195-5.505-36.339-17.928-49.746.982-1.169,2.977-3.512,3.962-4.682,71.931.346,143.518,12.901,214.81,22.479,83.079,16.784,173.471,24.819,244.845,74.35,24.286,28.332-16.946,51.209-40.194,59.296-162.22,52.62-334.731,57.194-503.017,71.267-415.601,18.676-834.235,17.452-1246.642-43.545-62.301-12.319-127.902-20.539-183.527-52.964-17.453-7.822-28.093-32.136-11.199-46.183,26.495-18.887,57.753-30.886,89.381-38.147Z" fill="#f2edeb"/>
  <path d="M990.026,2145.987c25.672-61.212,105.503-43.922,156.447-31.605-11.306,27.88-47.538,19.635-64.005,40.091-10.722,21.972-36.949,16.122-56.742,15.482-5.081-23.516,8.458-45.648,27.241-58.685-26.521,1.889-44.371,28.89-41.765,54.162-6.383-6.838-17.689-10.163-21.175-19.445Z" fill="#f7f8fc"/>
  <path d="M1446.436,2161.92c60.039-3.697,147.295,12.903,172.035-59.906,1.304,28.171-1.385,57.379-3.539,85.071-73.262,6.757-146.949,7.69-220.37,2.848-1.436-21.921-3.005-43.867-3.593-65.814,6.97,24.394,29.397,42.166,55.467,37.801Z" fill="#c6b19b"/>
  <path d="M1852.222,2115.076c39.369-7.102,80.231-17.798,120.054-8.035,24.101,6.172,45.62,28.729,43.867,54.694-7.183-2.288-17.85-6.146-21.656,3.19,1.117-23.035-14.499-48.84-38.73-51.555,15.828,13.809,29.766,34.505,23.09,56.423-23.781,6.519-37.536-13.727-53.392-26.602-23.913-8.352-59.986-1.011-73.232-28.116Z" fill="#f7f8fc"/>
  <path d="M1146.474,2114.382c3.484.587,6.942,1.198,10.454,1.837,17.611,35.406-18.676,66.134-49.346,75.841.052,1.146.158,3.459.213,4.603-28.545-2.607-75.524,13.912-82.068-26.708,19.793.64,46.021,6.489,56.742-15.482,16.467-20.456,52.7-12.211,64.005-40.091Z" fill="#dccdba"/>
  <path d="M1833.493,2118.32c6.198-1.304,12.423-2.502,18.728-3.244,13.246,27.105,49.319,19.765,73.232,28.116,15.856,12.875,29.61,33.12,53.392,26.602-3.112,11.758-9.337,28.598-24.287,27.161-37.722.878-75.445-.638-113.139-1.063-12.715-24.422-18.354-50.517-7.927-77.571Z" fill="#dccdba"/>
  <path d="M1156.927,2116.219c5.027.106,10.082.478,15.083,1.117,9.256,27.612,10.854,53.869-5.905,78.502-19.367,1.942-38.892.745-58.311.825-.055-1.145-.161-3.457-.213-4.603,30.67-9.707,66.957-40.435,49.346-75.841Z" fill="#c6b19b"/>
  <path d="M1023.092,2196.663c-24.897-.852-40.193-28.199-33.065-50.676,3.486,9.282,14.793,12.608,21.175,19.445,1.969,11.093,5.32,21.921,11.89,31.23Z" fill="#c6b19b"/>
  <path d="M1994.486,2164.926c3.807-9.337,14.474-5.478,21.656-3.19-1.092,18.38-17.027,32.028-34.317,35.167,6.809-9.524,10.347-20.643,12.661-31.977Z" fill="#dccdba"/>
  <path d="M866.595,2210.203c17.236-34.582,65.704-36.391,99.464-45.862,3.058,29.688,30.166,54.482,60.119,54.401,46.58.585,93.188-.507,139.767.214,8.406,31.495,41.633,49.371,72.916,45.994,49.452-5.24,117.419,18.435,148.518-33.759,77.572,8.035,158.521,10.854,235.453-2.951,27.48,51.712,92.842,33.117,140.111,36.391,32.855,4.494,67.835-13.007,78.211-45.649,45.728-.4,91.483.055,137.238-.345,29.981-.214,56.769-24.847,60.439-54.428.399,1.756,1.197,5.266,1.623,7.021,27.668,8.301,64.856,13.25,78.902,41.607-5.879,23.728-36.287,28.781-56.21,36.736-110.956,28.703-226.251,33.545-340.078,40.622-255.458,5.985-513.816,11.571-766.401-34.45-30.619-10.35-76.985-11.387-90.073-45.543Z" fill="#e5d6c7"/>
  <path d="M1638.154,2182.536c5.64,32.721,38.998,49.107,69.3,50.944-26.684,30.592-83.557-12.981-69.3-50.944Z" fill="#dccdba"/>
  <path d="M1187.572,2204.377c11.625,4.948,23.276,9.791,35.221,13.888,2.66,8.113,5.162,16.252,8.22,24.259-21.627.826-42.35-16.094-43.441-38.146Z" fill="#dccdba"/>
  <path d="M1393.711,2212.144c73.953,3.406,148.147,2.689,222.074-1.833,2.366,5.959,4.574,11.971,7.048,17.93-76.933,13.805-157.881,10.986-235.453,2.951,2.26-6.305,4.229-12.713,6.332-19.048Z" fill="#c6b19b"/>
  <path d="M1302.625,2231.725c24.048,1.543,45.994-8.407,67.224-17.691-7.502,25.032-53.204,43.974-67.224,17.691Z" fill="#dccdba"/>
</svg>